<svg width="24" height="19" viewBox="0 0 24 19" fill="none" xmlns="http://www.w3.org/2000/svg">
                    <path d="M7.34006 19C16.1575 19 20.9823 11.688 20.9823 5.35777C20.9823 5.15207 20.9823 4.94636 20.9729 4.74065C21.908 4.06742 22.7215 3.21654 23.3666 2.25344C22.5064 2.63681 21.5807 2.88927 20.6083 3.01083C21.5994 2.42175 22.3568 1.47736 22.7215 0.355314C21.7958 0.906988 20.7672 1.2997 19.6732 1.51476C18.7943 0.579724 17.5507 0 16.1762 0C13.53 0 11.3794 2.15059 11.3794 4.79675C11.3794 5.17077 11.4262 5.53543 11.501 5.89075C7.51772 5.69439 3.98327 3.77756 1.61762 0.878937C1.2062 1.58957 0.972441 2.4124 0.972441 3.29134C0.972441 4.95571 1.82333 6.42372 3.10433 7.28396C2.3189 7.25591 1.58022 7.04085 0.935039 6.68553C0.935039 6.70423 0.935039 6.72293 0.935039 6.75098C0.935039 9.06988 2.59006 11.0148 4.77805 11.4542C4.37598 11.5664 3.95522 11.6225 3.51575 11.6225C3.20718 11.6225 2.90797 11.5945 2.61811 11.5384C3.22589 13.4459 5.00246 14.8297 7.09695 14.8671C5.45128 16.1575 3.38484 16.9242 1.14075 16.9242C0.757382 16.9242 0.374016 16.9055 0 16.8588C2.11319 18.2052 4.6378 19 7.34006 19Z" fill="white"/>
                </svg>