<?xml version="1.0" encoding="UTF-8"?>
<svg width="87px" height="29px" viewBox="0 0 87 29" version="1.1" xmlns="http://www.w3.org/2000/svg" xmlns:xlink="http://www.w3.org/1999/xlink">
    <!-- Generator: Sketch 49.2 (51160) - http://www.bohemiancoding.com/sketch -->
    <title>Fill-1</title>
    <desc>Created with Sketch.</desc>
    <defs></defs>
    <g id="Page-1" stroke="none" stroke-width="1" fill="none" fill-rule="evenodd">
        <g id="Artboard-Copy" transform="translate(-209.000000, -32.000000)" fill="#1B8DFF" fill-rule="nonzero">
            <path d="M230.52923,43.3055517 C230.065914,43.7689259 229.494891,44.0590359 228.896749,44.1762353 C229.730233,46.4195913 229.18963,48.9867787 227.478447,50.6978438 C226.297432,51.8788585 224.708165,52.503942 223.099207,52.503942 C222.374905,52.503942 221.647007,52.3754825 220.950295,52.1155566 C220.834274,52.7168819 220.543516,53.2912654 220.077843,53.7569978 C218.837521,54.9972607 216.826618,54.9972607 215.586296,53.7569978 C214.346034,52.5167349 214.346034,50.5057145 215.586296,49.2654516 C216.049317,48.8024901 216.619868,48.5124981 217.21748,48.3951217 C216.367783,46.1446913 216.905026,43.5621761 218.623873,41.8433291 C220.341188,40.1258379 222.920755,39.5880645 225.169771,40.4345772 C225.288444,39.840798 225.577493,39.2743731 226.037684,38.8140056 C227.278005,37.5737427 229.288967,37.5737427 230.52923,38.8140056 C231.769552,40.0543274 231.769552,42.0652888 230.52923,43.3055517 Z M223.05116,32.257025 C215.299842,32.257025 209.01611,38.5407563 209.01611,46.2921339 C209.01611,54.0434526 215.299842,60.327184 223.05116,60.327184 C230.802538,60.327184 237.086269,54.0434526 237.086269,46.2921339 C237.086269,38.5407563 230.802538,32.257025 223.05116,32.257025 Z M224.709403,47.9287409 C223.80205,48.8362115 222.330808,48.8362115 221.423396,47.9287409 C220.516044,47.0213882 220.516044,45.5502046 221.423396,44.642793 C222.330808,43.7354404 223.80205,43.7354404 224.709403,44.642793 C225.616815,45.5502046 225.616815,47.0213882 224.709403,47.9287409 Z M226.781912,39.558234 C226.304212,40.035875 226.0852,40.7195582 226.196033,41.3870882 C226.234765,41.6055697 226.21136,41.8303593 226.114205,42.0401157 C225.98887,42.3107711 225.76579,42.5050226 225.506395,42.6005273 C225.24641,42.6961498 224.949992,42.6925537 224.678983,42.5669828 C223.157571,41.86243 221.33868,42.1862614 220.152713,43.372228 C218.966924,44.5580179 218.643269,46.3766732 219.347291,47.8978493 C219.474572,48.1728672 219.475987,48.4735888 219.376179,48.7360496 C219.279259,48.9907875 219.08713,49.2095048 218.820306,49.3330713 C218.673394,49.4010446 218.518877,49.4333511 218.366836,49.4333511 C218.294618,49.4333511 218.223579,49.4235648 218.153484,49.409416 C217.45913,49.314324 216.809875,49.5300347 216.338837,50.0012498 C215.94267,50.3973581 215.724483,50.9241072 215.724483,51.4844599 C215.724483,52.0446356 215.94267,52.5713258 216.338837,52.9676699 C217.156758,53.7851776 218.487396,53.7851776 219.30514,52.9676699 C219.782722,52.4897342 220.001793,51.8061099 219.890901,51.1388747 C219.884888,51.1022646 219.886244,51.0666567 219.890901,51.0318152 C219.878226,50.8551907 219.90841,50.6730244 219.988115,50.5009982 C220.11292,50.2313451 220.334939,50.0376241 220.593096,49.9418246 C220.853729,49.8450821 221.151267,49.8481476 221.423337,49.9741312 C222.944867,50.6788609 224.76364,50.3546757 225.949607,49.1689448 C227.135456,47.983096 227.45911,46.1643818 226.75497,44.6432647 C226.630696,44.3748495 226.626275,44.081674 226.719068,43.8236347 C226.813511,43.5609381 227.008647,43.3346158 227.282014,43.2080427 C227.473967,43.1190819 227.678535,43.0924349 227.874025,43.1178439 C227.904327,43.1143066 227.935101,43.1131866 227.9667,43.117667 C228.62804,43.2118747 229.27694,42.9958102 229.748096,42.5244773 C230.565899,41.7066749 230.565899,40.3760364 229.748096,39.558234 C228.930353,38.7403137 227.599655,38.7403137 226.781912,39.558234 Z M264.227204,50.5549996 C264.30573,50.5484558 264.364683,50.5451543 264.403946,50.5451543 L264.403946,52.6074053 C263.945642,52.699019 263.585613,52.7448848 263.323683,52.7448848 C262.446397,52.7448848 261.762301,52.5222766 261.271336,52.077119 C260.780313,51.6319614 260.534831,50.9379613 260.534831,49.9952366 L260.534831,38.4272119 L263.009461,38.4272119 L263.009461,49.5827982 C263.009461,49.9101667 263.074958,50.1556488 263.205835,50.3193037 C263.336771,50.4830174 263.598642,50.5647859 263.991449,50.5647859 C264.070034,50.5647859 264.148619,50.5615435 264.227204,50.5549996 Z M265.58726,52.6270369 L268.081581,52.6270369 L268.081581,42.4141754 L265.58726,42.4141754 L265.58726,52.6270369 Z M276.256716,42.4141754 L278.711774,42.4141754 L278.711774,52.6270369 L276.669154,52.6270369 L276.492412,51.2915052 C276.243687,51.7890724 275.857365,52.1785779 275.333623,52.4601396 C274.80988,52.7415834 274.220699,52.8823643 273.566021,52.8823643 C272.479273,52.8823643 271.618435,52.5485108 270.983329,51.880745 C270.348341,51.2129202 270.030818,50.3291489 270.030818,49.2293132 L270.030818,42.4141754 L272.485817,42.4141754 L272.485817,48.6793953 C272.485817,49.975605 273.075057,50.6237393 274.253419,50.6237393 C274.750986,50.6237393 275.169968,50.4535407 275.510424,50.1130845 C276.007991,49.6548393 276.256716,48.8889159 276.256716,47.8152555 L276.256716,42.4141754 Z M295.273333,45.733373 L295.273333,52.6270369 L292.837907,52.6270369 L292.837907,46.2832909 C292.837907,45.6155251 292.72336,45.1179579 292.494208,44.7905894 C292.265056,44.4632798 291.855919,44.2996249 291.266738,44.2996249 C290.625148,44.2996249 290.130882,44.5778853 289.783882,45.134347 C289.436941,45.6907497 289.263382,46.3290978 289.263382,47.0492143 L289.263382,52.6270369 L286.828073,52.6270369 L286.828073,46.2832909 C286.828073,45.6155251 286.713468,45.1179579 286.484375,44.7905894 C286.255223,44.4632798 285.846027,44.2996249 285.256787,44.2996249 C284.615314,44.2996249 284.117688,44.5778853 283.764144,45.134347 C283.410659,45.6907497 283.233917,46.3290978 283.233917,47.0492143 L283.233917,52.6270369 L280.798491,52.6270369 L280.798491,42.4141754 L282.84111,42.4141754 L283.037484,43.7693386 C283.692162,42.6956781 284.661121,42.158848 285.944243,42.158848 C287.345213,42.158848 288.320716,42.7153097 288.870634,43.8282331 C289.512224,42.7153097 290.540019,42.158848 291.954136,42.158848 C293.014708,42.158848 293.833041,42.4828562 294.409135,43.1310494 C294.985228,43.7791838 295.273333,44.646625 295.273333,45.733373 Z M265.508675,41.0000588 L268.140475,41.0000588 L268.140475,38.4664749 L265.508675,38.4664749 L265.508675,41.0000588 Z M247.77854,43.1801577 C248.393896,43.8609522 248.701633,44.7382386 248.701633,45.8118991 L248.701633,52.6270369 L246.246576,52.6270369 L246.246576,46.3225539 C246.246576,45.6940511 246.118941,45.2194168 245.863614,44.898651 C245.608286,44.5778853 245.172974,44.4174729 244.557559,44.4174729 C243.876647,44.4174729 243.356205,44.708762 242.996177,45.2914579 C242.636089,45.874095 242.456045,46.5255307 242.456045,47.2455882 L242.456045,52.6270369 L240.001046,52.6270369 L240.001046,38.4468434 L242.456045,38.4468434 L242.456045,43.4943796 C242.744092,43.0753974 243.143442,42.7480289 243.654097,42.512333 C244.164752,42.276696 244.695038,42.158848 245.244956,42.158848 C246.318617,42.158848 247.163125,42.4992452 247.77854,43.1801577 Z M252.3989,46.4992964 C252.411987,45.8708525 252.58873,45.3405662 252.929186,44.9084373 C253.321934,44.3847537 253.891483,44.1228235 254.637834,44.1228235 C255.305659,44.1228235 255.822799,44.3192565 256.18943,44.7120633 C256.595325,45.1572209 256.804786,45.7530046 256.817933,46.4992964 L252.3989,46.4992964 Z M254.657466,42.158848 C253.321934,42.158848 252.235186,42.5909178 251.397221,43.4551166 C250.415175,44.4632798 249.92421,45.8249868 249.92421,47.5402966 C249.92421,49.2554885 250.447953,50.6171955 251.495438,51.6253586 C252.372724,52.4633231 253.446326,52.8823643 254.71636,52.8823643 C256.195974,52.8823643 257.341676,52.4044286 258.153406,51.4486161 C258.664061,50.8332599 258.952107,50.2047571 259.017604,49.5631666 L256.660763,49.5631666 C256.56909,49.9035639 256.405495,50.1916695 256.169799,50.4273064 C255.84243,50.7546749 255.344922,50.9183298 254.677097,50.9183298 C254.114151,50.9183298 253.610039,50.7088682 253.164823,50.289827 C252.64108,49.7923188 252.392356,49.1245529 252.418531,48.2865884 L259.253241,48.2865884 C259.253241,48.1425062 259.259844,47.9134131 259.272873,47.5991911 C259.312195,46.1850744 259.017604,45.0001099 258.389102,44.0442975 C257.551137,42.7872918 256.307278,42.158848 254.657466,42.158848 Z" id="Fill-1"></path>
        </g>
    </g>
</svg>