<?xml version="1.0" encoding="utf-8"?>
<!-- Generator: Adobe Illustrator 22.1.0, SVG Export Plug-In . SVG Version: 6.00 Build 0)  -->
<svg version="1.1" id="Layer_1" xmlns="http://www.w3.org/2000/svg" xmlns:xlink="http://www.w3.org/1999/xlink" x="0px" y="0px"
	 viewBox="0 0 285 60" style="enable-background:new 0 0 285 60;" xml:space="preserve">
<style type="text/css">
	.st0{fill:#475362;}
	.st1{fill:#4EB648;}
</style>
<g>
	<path class="st0" d="M39.8,22.4c0.1,0,11.2,0,11.2,0c1.2,0,2.1-1,2.1-2.1c0-1.2-1-2.1-2.1-2.1H39.8c-9.7,0-17.7,7.9-17.7,17.7
		c0,9.7,7.9,17.7,17.7,17.7H51c1.2,0,2.1-0.9,2.1-2.1c0-1.2-1-2.1-2.1-2.1H39.8c-7.4,0-13.5-6-13.5-13.5
		C26.3,28.5,32.3,22.4,39.8,22.4z"/>
	<path class="st0" d="M94.6,49.4h-9.5c-7.4,0-13.3-6-13.3-13.3l0-15.8c0-1.1-1-2.1-2.1-2.1c-1.2,0-2.1,0.9-2.1,2.1l0,15.8
		c0,9.7,7.9,17.5,17.5,17.5h9.5c1.1,0,2.1-1,2.1-2.1C96.7,50.4,95.7,49.4,94.6,49.4z"/>
	<path class="st1" d="M136.2,49.4H125c-7.4,0-13.5-6-13.5-13.5c0-7.4,6-13.5,13.5-13.5c0.1,0,11.2,0,11.2,0c1.2,0,2.1-1,2.1-2.1
		c0-1.2-1-2.1-2.1-2.1H125c-9.7,0-17.7,7.9-17.7,17.7c0,9.7,7.9,17.7,17.7,17.7h11.2c1.2,0,2.1-0.9,2.1-2.1
		C138.3,50.4,137.4,49.4,136.2,49.4z"/>
	<path class="st0" d="M190.7,18.2c-0.5-0.3-1.1-0.3-1.7-0.1c-0.5,0.2-1,0.6-1.3,1.1l-16.4,30.1l-15.5-30.1c-0.3-0.5-0.7-0.9-1.3-1.1
		c-0.6-0.2-1.2-0.2-1.7,0.1c-1.1,0.6-1.5,1.9-0.9,3l15.6,30.5l0,0c1.2,2.1,2.7,2.5,3.7,2.5c1.1,0,2.6-0.4,3.7-2.6l16.6-30.5
		c0.3-0.5,0.3-1.1,0.1-1.7C191.5,18.9,191.2,18.5,190.7,18.2z"/>
	<path class="st0" d="M242.7,18.2c-0.5-0.3-1.1-0.3-1.7-0.1c-0.5,0.2-1,0.6-1.3,1.1l-16.4,30.1l-16.4-30.1c-0.3-0.5-0.7-0.9-1.3-1.1
		c-0.6-0.2-1.2-0.2-1.7,0.1c-1.1,0.6-1.5,1.9-0.9,3l16.5,30.5l0,0c1.2,2.1,2.7,2.5,3.7,2.5c1.1,0,2.6-0.4,3.7-2.6l16.6-30.5
		c0.3-0.5,0.3-1.1,0.1-1.7C243.6,18.9,243.2,18.5,242.7,18.2z"/>
	<path class="st0" d="M258.4,17.9c-1.2,0-2.2,1-2.2,2.2v31.5c0,1.2,1,2.2,2.2,2.2c1.2,0,2.2-1,2.2-2.2V20.2
		C260.6,18.9,259.6,17.9,258.4,17.9z"/>
	<path class="st1" d="M258.4,6.9c-2,0-3.7,1.6-3.7,3.7s1.6,3.7,3.7,3.7c2,0,3.7-1.6,3.7-3.7S260.4,6.9,258.4,6.9z"/>
	<path class="st1" d="M136.2,33.7h-14.8c-1.1,0-2.1,0.9-2.1,2.1c0,1.1,0.9,2.1,2.1,2.1h14.8c1.1,0,2.1-0.9,2.1-2.1
		C138.3,34.7,137.4,33.7,136.2,33.7z"/>
</g>
</svg>
