<svg id="Layer_1" data-name="Layer 1" xmlns="http://www.w3.org/2000/svg" viewBox="0 0 1257.12 286.54"><defs><style>.cls-1{fill:#a758e4;}</style></defs><title>Oxidize Logo - Full Horizontal - Violet</title><path class="cls-1" d="M-1255.83,588a16.5,16.5,0,0,1-15.93-12.27A16.49,16.49,0,0,1-1260,555.58a113.73,113.73,0,0,0,51.1-29.27,16.49,16.49,0,0,1,23.32.06,16.48,16.48,0,0,1-.05,23.32,146.72,146.72,0,0,1-65.94,37.77A16.22,16.22,0,0,1-1255.83,588Zm-67.43-.18a16.3,16.3,0,0,1-4.34-.58,147.49,147.49,0,0,1-65.67-38.17,16.48,16.48,0,0,1,0-23.32,16.49,16.49,0,0,1,23.32,0,114.47,114.47,0,0,0,51,29.63,16.49,16.49,0,0,1,11.59,20.24A16.5,16.5,0,0,1-1323.26,587.83Zm159.9-91.64a16.73,16.73,0,0,1-4.35-.58,16.49,16.49,0,0,1-11.57-20.25,113.28,113.28,0,0,0,4-29.73,114.17,114.17,0,0,0-3.81-29.17l0-.13a16.5,16.5,0,0,1,11.64-20.21,16.5,16.5,0,0,1,20.21,11.64l.08.3a147.53,147.53,0,0,1,4.89,37.57,146.28,146.28,0,0,1-5.14,38.4A16.5,16.5,0,0,1-1163.36,496.19Zm-251.79-.78a16.48,16.48,0,0,1-15.92-12.27l0-.1a147.36,147.36,0,0,1-4.9-37.59,145.85,145.85,0,0,1,5.12-38.29,16.48,16.48,0,0,1,20.23-11.59,16.49,16.49,0,0,1,11.59,20.24,113.43,113.43,0,0,0-4,29.64,114.17,114.17,0,0,0,3.81,29.17l0,.06a16.52,16.52,0,0,1-11.73,20.18A16.77,16.77,0,0,1-1415.15,495.41Zm218.35-125.35a16.45,16.45,0,0,1-11.68-4.85,114.56,114.56,0,0,0-51-29.58,16.49,16.49,0,0,1-11.6-20.23,16.49,16.49,0,0,1,20.24-11.6,147.4,147.4,0,0,1,65.7,38.12,16.49,16.49,0,0,1,0,23.32A16.44,16.44,0,0,1-1196.8,370.06Zm-184.3-.42a16.42,16.42,0,0,1-11.67-4.85,16.48,16.48,0,0,1,0-23.32,146.8,146.8,0,0,1,65.91-37.82,16.49,16.49,0,0,1,20.17,11.71,16.5,16.5,0,0,1-11.71,20.17,113.66,113.66,0,0,0-51.08,29.3A16.44,16.44,0,0,1-1381.1,369.64Z" transform="translate(1436 -301.48)"/><path class="cls-1" d="M-1325.59,518.85a16.37,16.37,0,0,1-8.83-2.58l-.11-.06a83.7,83.7,0,0,1-38.61-70.73,83.77,83.77,0,0,1,13.3-45.29A83.32,83.32,0,0,1-1334.68,375a16.51,16.51,0,0,1,22.8,4.93,16.5,16.5,0,0,1-4.94,22.8A50.57,50.57,0,0,0-1332.08,418a50.82,50.82,0,0,0-8.08,27.48,50.83,50.83,0,0,0,23.47,43l0,0a16.48,16.48,0,0,1,5,22.71A16.48,16.48,0,0,1-1325.59,518.85Zm73-.07a16.47,16.47,0,0,1-13.89-7.57,16.5,16.5,0,0,1,5-22.79,50.59,50.59,0,0,0,15.28-15.34,50.83,50.83,0,0,0,8.09-27.48,50.85,50.85,0,0,0-23.47-43l0,0a16.49,16.49,0,0,1-5-22.75,16.49,16.49,0,0,1,22.76-5.06l.11.07a83.69,83.69,0,0,1,38.64,70.74,83.69,83.69,0,0,1-13.31,45.29,83.18,83.18,0,0,1-25.2,25.26A16.38,16.38,0,0,1-1252.58,518.78Zm-9-116.16Z" transform="translate(1436 -301.48)"/><path class="cls-1" d="M-1289.29,466.15A20.7,20.7,0,0,1-1310,445.47a20.7,20.7,0,0,1,20.67-20.67,20.7,20.7,0,0,1,20.67,20.67A20.7,20.7,0,0,1-1289.29,466.15Z" transform="translate(1436 -301.48)"/><path class="cls-1" d="M-1014.92,368.35a74.44,74.44,0,0,1,29.54,5.88,76,76,0,0,1,24.09,16.2,75.82,75.82,0,0,1,16.2,24.09,74.44,74.44,0,0,1,5.88,29.54,74.4,74.4,0,0,1-5.88,29.54,75.82,75.82,0,0,1-16.2,24.09,75.87,75.87,0,0,1-24.09,16.2,74.44,74.44,0,0,1-29.54,5.88,74.4,74.4,0,0,1-29.54-5.88,75.65,75.65,0,0,1-24.09-16.2,75.65,75.65,0,0,1-16.2-24.09,74.4,74.4,0,0,1-5.88-29.54,74.44,74.44,0,0,1,5.88-29.54,75.65,75.65,0,0,1,16.2-24.09,75.82,75.82,0,0,1,24.09-16.2A74.4,74.4,0,0,1-1014.92,368.35Zm.14,121.88a45.23,45.23,0,0,0,17.87-3.58,45.87,45.87,0,0,0,14.72-9.9A45.77,45.77,0,0,0-972.33,462a45.4,45.4,0,0,0,3.58-17.92,45.44,45.44,0,0,0-3.58-17.92,45.88,45.88,0,0,0-9.86-14.77,46,46,0,0,0-14.72-9.9,45.41,45.41,0,0,0-17.87-3.58,45.37,45.37,0,0,0-17.87,3.58,46,46,0,0,0-14.72,9.9,48,48,0,0,0-10,14.77,44,44,0,0,0-3.71,17.92,44,44,0,0,0,3.71,17.92,47.85,47.85,0,0,0,10,14.77,45.87,45.87,0,0,0,14.72,9.9A45.2,45.2,0,0,0-1014.78,490.23Z" transform="translate(1436 -301.48)"/><path class="cls-1" d="M-843.95,441.5a8.32,8.32,0,0,0,0,8.56l42,62.68c2.59,3.87.91,7-3.75,7h-23.45a7.1,7.1,0,0,1-5.24-2.78l-27.36-40.55c-1.58-2.35-4.17-2.35-5.74,0L-894.55,517a7.09,7.09,0,0,1-5.26,2.81h-23.43c-4.66,0-6.34-3.16-3.75-7l42-62.68a8.32,8.32,0,0,0,0-8.56l-44-65.84c-2.59-3.86-.9-7,3.75-7h23.44a7.07,7.07,0,0,1,5.26,2.81l29.1,43.66c1.57,2.36,4.16,2.36,5.74,0l29.37-43.69a7.06,7.06,0,0,1,5.24-2.79h23.46c4.65,0,6.34,3.16,3.75,7Z" transform="translate(1436 -301.48)"/><path class="cls-1" d="M-742.7,368.35a6.33,6.33,0,0,1,6.32,6.32V513.45a6.33,6.33,0,0,1-6.32,6.32h-16.9a6.34,6.34,0,0,1-6.32-6.32V374.67a6.34,6.34,0,0,1,6.32-6.32Z" transform="translate(1436 -301.48)"/><path class="cls-1" d="M-554.25,443.92c0,.08-.22,2.45-.49,5.27,0,0-1.47,15.23-5.39,24.41a75.82,75.82,0,0,1-16.2,24.09,75.65,75.65,0,0,1-24.09,16.2A74.44,74.44,0,0,1-630,519.77a74.4,74.4,0,0,1-29.54-5.88,75.87,75.87,0,0,1-24.09-16.2,75.82,75.82,0,0,1-16.2-24.09,74.4,74.4,0,0,1-5.88-29.54,74.44,74.44,0,0,1,5.88-29.54,75.82,75.82,0,0,1,16.2-24.09,76,76,0,0,1,24.09-16.2A74.4,74.4,0,0,1-630,368.35a73.17,73.17,0,0,1,24.81,4.16c5.87,2.1,12.56,6.2,15.56,7.88s5.86-.12,5.8-2.77V307.8a6.34,6.34,0,0,1,6.32-6.32h16.9a6.33,6.33,0,0,1,6.32,6.32V443.92Zm-75.56,46.31a45.18,45.18,0,0,0,17.86-3.58,46,46,0,0,0,14.73-9.9A46.09,46.09,0,0,0-587.36,462a51.32,51.32,0,0,0,3.08-12.79c.27-2.82.49-5.19.49-5.27s-.22-2.46-.5-5.28A49.88,49.88,0,0,0-587.36,426a46.66,46.66,0,0,0-9.86-14.62,46.19,46.19,0,0,0-14.73-9.9,45.36,45.36,0,0,0-17.86-3.58,45.38,45.38,0,0,0-17.88,3.58,46,46,0,0,0-14.72,9.9,48.14,48.14,0,0,0-10,14.77,44.18,44.18,0,0,0-3.71,17.92A44.14,44.14,0,0,0-672.42,462a48,48,0,0,0,10,14.77,45.87,45.87,0,0,0,14.72,9.9A45.21,45.21,0,0,0-629.81,490.23Z" transform="translate(1436 -301.48)"/><path class="cls-1" d="M-500,368.35a6.34,6.34,0,0,1,6.32,6.32V513.45a6.34,6.34,0,0,1-6.32,6.32h-16.9a6.33,6.33,0,0,1-6.32-6.32V374.67a6.33,6.33,0,0,1,6.32-6.32Z" transform="translate(1436 -301.48)"/><path class="cls-1" d="M-181.46,424.56a72.11,72.11,0,0,0-13.77-27A74.81,74.81,0,0,0-221,376.24a72.8,72.8,0,0,0-33.55-7.89,74.4,74.4,0,0,0-29.54,5.88,76,76,0,0,0-24.09,16.2,75.82,75.82,0,0,0-16.2,24.09,74.44,74.44,0,0,0-5.88,29.54,74.4,74.4,0,0,0,5.88,29.54,75.93,75.93,0,0,0,16.2,24.09,75.87,75.87,0,0,0,24.09,16.2,74.4,74.4,0,0,0,29.54,5.88A72.8,72.8,0,0,0-221,511.88c10.33-5.25,20.78-15.93,20.78-15.93a115,115,0,0,0,8.65-10.08l.12-.17,1.57-2.49c1.62-2.59,1.71-2.79,1.71-2.79,1.39-3.07-.79-5.39-4.75-5.39h-14.85c-4,0-7.92,0-9.42,0-3.14,0-5.65,2.15-8.6,4.79a44.48,44.48,0,0,1-10,6.39,44.41,44.41,0,0,1-18.78,4,45.46,45.46,0,0,1-15.77-2.72,46.67,46.67,0,0,1-13.48-7.6A45.43,45.43,0,0,1-294,468.29a37.42,37.42,0,0,1-3.74-7.6c-1.18-3.78,1.1-6.88,5.06-6.88h105.76a8.74,8.74,0,0,0,6.28-2.71,7,7,0,0,0,1.78-4.76v-2.28A71.77,71.77,0,0,0-181.46,424.56Zm-37.14-.29h-70.66c-4,0-5.42-2.71-3.24-6,0,0,5.46-8.3,12.82-13.12a44.69,44.69,0,0,1,25.09-7.24l.66,0,.66,0a44.67,44.67,0,0,1,25.09,7.24c7.37,4.82,12.83,13.12,12.83,13.12C-213.18,421.56-214.64,424.27-218.6,424.27Z" transform="translate(1436 -301.48)"/><path class="cls-1" d="M-342.8,491.13h-60.48c-4.73,0-6.58-3.3-4.11-7.34L-383,444l25.86-42.22,5.4-8.77,8.53-13.78c3.76-6.07,1-11-6.14-11H-458.3a6.35,6.35,0,0,0-6.32,6.32v16a6.34,6.34,0,0,0,6.32,6.32h60.48c4.73,0,6.58,3.3,4.11,7.34L-418.1,444-444,486.19c-1.48,2.42-3.91,6.37-5.41,8.78l-8.53,13.78c-3.75,6.06-1,11,6.14,11h109a6.33,6.33,0,0,0,6.31-6.32v-16A6.34,6.34,0,0,0-342.8,491.13Z" transform="translate(1436 -301.48)"/></svg>