<?xml version="1.0" encoding="UTF-8" standalone="no"?>
<svg
   xmlns:dc="http://purl.org/dc/elements/1.1/"
   xmlns:cc="http://creativecommons.org/ns#"
   xmlns:rdf="http://www.w3.org/1999/02/22-rdf-syntax-ns#"
   xmlns:svg="http://www.w3.org/2000/svg"
   xmlns="http://www.w3.org/2000/svg"
   viewBox="0 0 944.29333 146.12"
   height="146.12"
   width="944.29333"
   xml:space="preserve"
   id="svg3732"
   version="1.1"><metadata
     id="metadata3738"><rdf:RDF><cc:Work
         rdf:about=""><dc:format>image/svg+xml</dc:format><dc:type
           rdf:resource="http://purl.org/dc/dcmitype/StillImage" /><dc:title></dc:title></cc:Work></rdf:RDF></metadata><defs
     id="defs3736" /><g
     transform="matrix(1.3333333,0,0,-1.3333333,0,146.12)"
     id="g3740"><g
       transform="scale(0.1)"
       id="g3742"><path
         id="path3744"
         style="fill:#231f20;fill-opacity:1;fill-rule:nonzero;stroke:none"
         d="m 6993.96,755.859 c 12.13,-0.308 20.55,2.532 20.55,15.774 0,14.656 -15.51,13.562 -25.92,13.562 h -24.21 v -29.336 z m 38,-61.699 h -25.87 l -23.96,45.41 h -17.75 v -45.41 h -22.56 v 107.629 h 51.83 c 28.21,0 41.72,-7.605 41.72,-33 0,-19.707 -10.41,-27.891 -29.28,-29.219 z m 23.96,54.399 c 0,44.246 -30.69,75.781 -73.26,75.781 -43.36,0 -73.26,-31.535 -73.26,-75.781 0,-44.829 29.9,-76.106 73.26,-76.106 42.57,0 73.26,31.277 73.26,76.106 z m -172.7,0 c 0,54.668 44.26,99.175 99.44,99.175 54.66,0 99.49,-44.507 99.49,-99.175 0,-55.286 -44.83,-99.797 -99.49,-99.797 -55.18,0 -99.44,44.511 -99.44,99.797" /><path
         id="path3746"
         style="fill:#231f20;fill-opacity:1;fill-rule:nonzero;stroke:none"
         d="M 635.957,946.016 H 406.563 V 212.395 H 229.395 V 946.016 H 0 V 1095.9 H 635.957 V 946.016" /><path
         id="path3748"
         style="fill:#231f20;fill-opacity:1;fill-rule:nonzero;stroke:none"
         d="m 871.035,782.48 c 53.41,44.297 119.27,79.512 189.685,79.512 69.28,0 166.95,-42.039 166.95,-198.738 V 212.395 H 1059.6 v 382.734 c 0,51.062 3.41,131.726 -69.295,131.726 -48.821,0 -87.434,-35.253 -119.27,-69.277 V 212.395 H 702.988 V 1095.9 H 871.035 V 782.48" /><path
         id="path3750"
         style="fill:#231f20;fill-opacity:1;fill-rule:nonzero;stroke:none"
         d="m 1683.09,530.363 c 0,79.5 -15.92,207.821 -106.79,207.821 -90.85,0 -106.75,-128.321 -106.75,-207.821 0,-79.504 15.9,-207.812 106.75,-207.812 90.87,0 106.79,128.308 106.79,207.812 z m -386.15,0 c 0,169.207 93.12,331.629 279.36,331.629 186.28,0 279.38,-162.422 279.38,-331.629 0,-168.054 -94.25,-331.582 -279.38,-331.582 -185.11,0 -279.36,163.528 -279.36,331.582" /><path
         id="path3752"
         style="fill:#231f20;fill-opacity:1;fill-rule:nonzero;stroke:none"
         d="m 2286.11,278.254 c -53.38,-44.297 -119.25,-79.473 -189.66,-79.473 -69.26,0 -166.96,42 -166.96,198.699 v 450.918 h 168.07 V 465.664 c 0,-51.133 -3.39,-131.773 69.3,-131.773 48.83,0 87.44,35.203 119.25,69.312 v 445.195 h 168.07 V 212.395 h -168.07 v 65.859" /><path
         id="path3754"
         style="fill:#231f20;fill-opacity:1;fill-rule:nonzero;stroke:none"
         d="m 2791.47,528.066 c 70.43,0 90.87,57.942 90.87,118.125 0,57.93 -27.26,106.797 -90.87,106.797 -70.42,0 -92,-59.097 -92,-119.273 0,-57.895 27.27,-105.649 92,-105.649 z M 2675.63,211.242 c -15.9,-10.234 -26.14,-19.328 -26.14,-39.734 0,-59.094 119.26,-62.5 159.02,-62.5 28.37,0 176.04,3.406 176.04,54.566 0,32.91 -22.69,29.516 -122.65,35.207 z m 53.39,210.067 c -19.33,0 -47.69,-10.172 -47.69,-39.727 0,-82.906 440.62,61.309 440.62,-187.398 C 3121.95,99.9258 3058.34,0 2806.23,0 c -219.16,0 -294.14,77.2617 -294.14,160.117 0,48.867 30.66,73.84 69.29,96.574 -27.28,20.45 -49.94,44.278 -49.94,80.594 0,62.512 34.06,95.41 82.87,127.207 -46.58,45.473 -79.49,102.238 -79.49,174.883 0,140.852 119.26,222.617 256.65,222.617 55.64,0 109.04,-15.906 156.73,-44.297 34.07,31.797 64.72,52.27 114.71,52.27 15.88,0 32.93,-1.145 48.85,-4.524 V 747.309 c -17.05,6.773 -35.22,13.613 -53.42,13.613 -18.14,0 -29.49,-5.664 -45.42,-13.613 18.15,-34.094 32.96,-71.567 34.06,-107.934 0,-140.816 -118.1,-222.574 -255.51,-222.574 l -62.45,4.508" /><path
         id="path3756"
         style="fill:#231f20;fill-opacity:1;fill-rule:nonzero;stroke:none"
         d="m 3352.5,782.48 c 53.36,44.297 119.23,79.512 189.65,79.512 69.32,0 166.95,-42.039 166.95,-198.738 V 212.395 h -168.07 v 382.734 c 0,51.062 3.43,131.726 -69.3,131.726 -48.84,0 -87.41,-35.253 -119.23,-69.277 V 212.395 H 3184.4 V 1095.9 h 168.1 V 782.48" /><path
         id="path3758"
         style="fill:#231f20;fill-opacity:1;fill-rule:nonzero;stroke:none"
         d="m 4014.61,848.398 h 130.62 V 708.645 H 4014.61 V 384.992 c 0,-30.637 9.06,-62.441 63.58,-62.441 28.39,0 46.56,11.34 67.04,23.855 V 218.059 c -35.26,-10.235 -71.58,-19.278 -107.93,-19.278 -104.46,0 -190.76,59.004 -190.76,197.559 v 312.305 h -78.39 v 139.753 h 78.39 v 158.962 h 168.07 V 848.398" /><path
         id="path3760"
         style="fill:#231f20;fill-opacity:1;fill-rule:nonzero;stroke:none"
         d="m 4844.77,212.395 h -90.88 L 4604,934.68 h -2.24 L 4443.85,212.395 h -90.84 l -185.1,883.505 h 88.56 l 145.39,-713.166 h 2.28 l 158.97,713.166 h 87.48 l 150.99,-713.166 h 2.31 l 155.6,713.166 h 87.43 L 4844.77,212.395" /><path
         id="path3762"
         style="fill:#231f20;fill-opacity:1;fill-rule:nonzero;stroke:none"
         d="m 5421.64,525.859 c 0,106.743 -26.04,256.621 -162.37,256.621 -136.24,0 -162.42,-149.878 -162.42,-256.621 0,-106.804 26.18,-256.699 162.42,-256.699 136.33,0 162.37,149.895 162.37,256.699 z m -413.38,0 c 0,235.063 111.35,331.614 251.01,331.614 139.69,0 251,-96.551 251,-331.614 0,-235.117 -111.31,-331.675 -251,-331.675 -139.66,0 -251.01,96.558 -251.01,331.675" /><path
         id="path3764"
         style="fill:#231f20;fill-opacity:1;fill-rule:nonzero;stroke:none"
         d="m 5668.09,704.121 h 2.3 c 35.22,74.953 80.67,144.277 173.77,144.277 h 34.06 V 767.727 C 5762.39,783.637 5702.19,658.684 5668.09,567.844 V 212.395 h -88.54 v 626.882 h 88.54 V 704.121" /><path
         id="path3766"
         style="fill:#231f20;fill-opacity:1;fill-rule:nonzero;stroke:none"
         d="m 6038.34,548.516 232.8,290.761 h 98.82 L 6197.35,624.672 6396.04,212.395 h -95.36 L 6140.52,553.09 6038.34,427.031 V 212.395 h -88.59 V 1095.9 h 88.59 V 548.516" /><path
         id="path3768"
         style="fill:#231f20;fill-opacity:1;fill-rule:nonzero;stroke:none"
         d="m 6779.93,699.57 c -35.2,52.258 -77.24,82.91 -143.11,82.91 -57.89,0 -112.41,-29.492 -112.41,-93.093 0,-153.34 330.51,-86.336 330.51,-297.571 0,-122.656 -87.48,-197.632 -205.6,-197.632 -101.08,0 -182.86,44.293 -233.91,131.773 l 70.37,44.301 c 34.06,-64.77 88.6,-101.098 163.54,-101.098 64.74,0 122.64,35.18 122.64,106.762 0,157.859 -330.43,82.906 -330.43,307.754 0,107.926 88.6,173.797 191.93,173.797 87.44,0 160.08,-36.36 208.92,-109.051 l -62.45,-48.852" /></g></g></svg>